<svg width="19" height="19" viewBox="0 0 19 19" fill="none" xmlns="http://www.w3.org/2000/svg">
<rect x="1" y="7" width="16" height="10" fill="#5F33E1"/>
<path d="M19.0001 4.07138C19.0001 3.3515 18.7141 2.66111 18.2051 2.15208C17.696 1.64305 17.0056 1.35709 16.2858 1.35709H15.6072V0.697597C15.6072 0.332439 15.3264 0.019023 14.9613 0.000786288C14.8695 -0.00363428 14.7778 0.0106189 14.6918 0.0426822C14.6057 0.0747455 14.527 0.123951 14.4605 0.187318C14.394 0.250685 14.3411 0.326893 14.3049 0.411325C14.2687 0.495758 14.2501 0.586656 14.25 0.678512V1.35709H4.75002V0.697597C4.75002 0.332439 4.46926 0.019023 4.1041 0.000786288C4.01235 -0.00363428 3.92066 0.0106189 3.83458 0.0426822C3.7485 0.0747455 3.66983 0.123951 3.60333 0.187318C3.53683 0.250685 3.48389 0.326893 3.44771 0.411325C3.41153 0.495758 3.39288 0.586656 3.39287 0.678512V1.35709H2.71429C1.99442 1.35709 1.30403 1.64305 0.794998 2.15208C0.28597 2.66111 0 3.3515 0 4.07138V4.58031C0 4.6253 0.0178731 4.66845 0.0496874 4.70027C0.0815017 4.73208 0.124651 4.74995 0.169643 4.74995H18.8304C18.8754 4.74995 18.9186 4.73208 18.9504 4.70027C18.9822 4.66845 19.0001 4.6253 19.0001 4.58031V4.07138Z" fill="#5F33E1"/>
<path d="M0 16.2857C0 17.0056 0.28597 17.696 0.794998 18.205C1.30403 18.714 1.99442 19 2.71429 19H16.2858C17.0056 19 17.696 18.714 18.2051 18.205C18.7141 17.696 19.0001 17.0056 19.0001 16.2857V6.23432C19.0001 6.20057 18.9867 6.16821 18.9628 6.14435C18.9389 6.12049 18.9066 6.10709 18.8728 6.10709H0.127233C0.0934884 6.10709 0.0611263 6.12049 0.0372656 6.14435C0.0134049 6.16821 0 6.20057 0 6.23432V16.2857ZM14.5893 7.46423C14.7906 7.46423 14.9874 7.52393 15.1548 7.63577C15.3222 7.74762 15.4527 7.90659 15.5297 8.09258C15.6068 8.27857 15.6269 8.48322 15.5876 8.68067C15.5484 8.87811 15.4514 9.05948 15.3091 9.20183C15.1667 9.34418 14.9854 9.44112 14.7879 9.4804C14.5905 9.51967 14.3858 9.49951 14.1998 9.42247C14.0138 9.34544 13.8549 9.21497 13.743 9.04759C13.6312 8.8802 13.5715 8.68341 13.5715 8.48209C13.5715 8.21214 13.6787 7.95324 13.8696 7.76236C14.0605 7.57147 14.3194 7.46423 14.5893 7.46423ZM14.5893 10.8571C14.7906 10.8571 14.9874 10.9168 15.1548 11.0286C15.3222 11.1405 15.4527 11.2995 15.5297 11.4854C15.6068 11.6714 15.6269 11.8761 15.5876 12.0735C15.5484 12.271 15.4514 12.4523 15.3091 12.5947C15.1667 12.737 14.9854 12.834 14.7879 12.8733C14.5905 12.9125 14.3858 12.8924 14.1998 12.8153C14.0138 12.7383 13.8549 12.6078 13.743 12.4405C13.6312 12.2731 13.5715 12.0763 13.5715 11.875C13.5715 11.605 13.6787 11.3461 13.8696 11.1552C14.0605 10.9643 14.3194 10.8571 14.5893 10.8571ZM11.1965 7.46423C11.3978 7.46423 11.5946 7.52393 11.762 7.63577C11.9293 7.74762 12.0598 7.90659 12.1368 8.09258C12.2139 8.27857 12.234 8.48322 12.1948 8.68067C12.1555 8.87811 12.0586 9.05948 11.9162 9.20183C11.7738 9.34418 11.5925 9.44112 11.395 9.4804C11.1976 9.51967 10.9929 9.49951 10.8069 9.42247C10.621 9.34544 10.462 9.21497 10.3501 9.04759C10.2383 8.8802 10.1786 8.68341 10.1786 8.48209C10.1786 8.21214 10.2858 7.95324 10.4767 7.76236C10.6676 7.57147 10.9265 7.46423 11.1965 7.46423ZM11.1965 10.8571C11.3978 10.8571 11.5946 10.9168 11.762 11.0286C11.9293 11.1405 12.0598 11.2995 12.1368 11.4854C12.2139 11.6714 12.234 11.8761 12.1948 12.0735C12.1555 12.271 12.0586 12.4523 11.9162 12.5947C11.7738 12.737 11.5925 12.834 11.395 12.8733C11.1976 12.9125 10.9929 12.8924 10.8069 12.8153C10.621 12.7383 10.462 12.6078 10.3501 12.4405C10.2383 12.2731 10.1786 12.0763 10.1786 11.875C10.1786 11.605 10.2858 11.3461 10.4767 11.1552C10.6676 10.9643 10.9265 10.8571 11.1965 10.8571ZM11.1965 14.25C11.3978 14.25 11.5946 14.3097 11.762 14.4215C11.9293 14.5334 12.0598 14.6923 12.1368 14.8783C12.2139 15.0643 12.234 15.269 12.1948 15.4664C12.1555 15.6639 12.0586 15.8452 11.9162 15.9876C11.7738 16.1299 11.5925 16.2269 11.395 16.2661C11.1976 16.3054 10.9929 16.2852 10.8069 16.2082C10.621 16.1312 10.462 16.0007 10.3501 15.8333C10.2383 15.6659 10.1786 15.4691 10.1786 15.2678C10.1786 14.9979 10.2858 14.739 10.4767 14.5481C10.6676 14.3572 10.9265 14.25 11.1965 14.25ZM7.8036 10.8571C8.00491 10.8571 8.2017 10.9168 8.36909 11.0286C8.53648 11.1405 8.66694 11.2995 8.74398 11.4854C8.82102 11.6714 8.84117 11.8761 8.8019 12.0735C8.76262 12.271 8.66568 12.4523 8.52333 12.5947C8.38098 12.737 8.19962 12.834 8.00217 12.8733C7.80473 12.9125 7.60007 12.8924 7.41408 12.8153C7.22809 12.7383 7.06912 12.6078 6.95728 12.4405C6.84543 12.2731 6.78574 12.0763 6.78574 11.875C6.78574 11.605 6.89297 11.3461 7.08386 11.1552C7.27475 10.9643 7.53364 10.8571 7.8036 10.8571ZM7.8036 14.25C8.00491 14.25 8.2017 14.3097 8.36909 14.4215C8.53648 14.5334 8.66694 14.6923 8.74398 14.8783C8.82102 15.0643 8.84117 15.269 8.8019 15.4664C8.76262 15.6639 8.66568 15.8452 8.52333 15.9876C8.38098 16.1299 8.19962 16.2269 8.00217 16.2661C7.80473 16.3054 7.60007 16.2852 7.41408 16.2082C7.22809 16.1312 7.06912 16.0007 6.95728 15.8333C6.84543 15.6659 6.78574 15.4691 6.78574 15.2678C6.78574 14.9979 6.89297 14.739 7.08386 14.5481C7.27475 14.3572 7.53364 14.25 7.8036 14.25ZM4.41073 10.8571C4.61204 10.8571 4.80884 10.9168 4.97622 11.0286C5.14361 11.1405 5.27407 11.2995 5.35111 11.4854C5.42815 11.6714 5.44831 11.8761 5.40903 12.0735C5.36976 12.271 5.27281 12.4523 5.13046 12.5947C4.98811 12.737 4.80675 12.834 4.6093 12.8733C4.41186 12.9125 4.2072 12.8924 4.02121 12.8153C3.83522 12.7383 3.67625 12.6078 3.56441 12.4405C3.45256 12.2731 3.39287 12.0763 3.39287 11.875C3.39287 11.605 3.50011 11.3461 3.69099 11.1552C3.88188 10.9643 4.14078 10.8571 4.41073 10.8571ZM4.41073 14.25C4.61204 14.25 4.80884 14.3097 4.97622 14.4215C5.14361 14.5334 5.27407 14.6923 5.35111 14.8783C5.42815 15.0643 5.44831 15.269 5.40903 15.4664C5.36976 15.6639 5.27281 15.8452 5.13046 15.9876C4.98811 16.1299 4.80675 16.2269 4.6093 16.2661C4.41186 16.3054 4.2072 16.2852 4.02121 16.2082C3.83522 16.1312 3.67625 16.0007 3.56441 15.8333C3.45256 15.6659 3.39287 15.4691 3.39287 15.2678C3.39287 14.9979 3.50011 14.739 3.69099 14.5481C3.88188 14.3572 4.14078 14.25 4.41073 14.25Z" fill="#BFADF3"/>
</svg>
