<svg width="19" height="19" viewBox="0 0 19 19" fill="none" xmlns="http://www.w3.org/2000/svg">
<path d="M9.34862 15.7195C12.8523 15.7195 15.6926 12.8792 15.6926 9.37547C15.6926 5.87179 12.8523 3.03149 9.34862 3.03149C5.84493 3.03149 3.00464 5.87179 3.00464 9.37547C3.00464 12.8792 5.84493 15.7195 9.34862 15.7195Z" fill="#BFADF3"/>
<path d="M2.97535 19C2.85385 19 2.73213 18.9594 2.63114 18.8766C2.4 18.6862 2.36655 18.3446 2.55668 18.1132L4.24281 16.0637C4.43316 15.8328 4.775 15.7993 5.00592 15.9894C5.23727 16.1798 5.27072 16.5214 5.08037 16.7528L3.39424 18.8023C3.28742 18.9325 3.13182 19 2.97535 19Z" fill="#5F33E1"/>
<path d="M15.8217 19C15.6652 19 15.5098 18.9325 15.4028 18.8023L13.716 16.7528C13.5259 16.5216 13.5589 16.1798 13.7903 15.9894C14.0216 15.7993 14.363 15.8326 14.5536 16.0637L16.2401 18.1132C16.4305 18.3444 16.3973 18.6862 16.1661 18.8766C16.0649 18.9594 15.943 19 15.8217 19Z" fill="#5F33E1"/>
<path d="M9.39885 17.9305C4.67906 17.9305 0.839355 14.0908 0.839355 9.37097C0.839355 4.65205 4.67906 0.812988 9.39885 0.812988C14.118 0.812988 17.9575 4.65205 17.9575 9.37097C17.9575 14.0908 14.118 17.9305 9.39885 17.9305ZM9.39885 1.89744C5.27686 1.89744 1.92381 5.25006 1.92381 9.37097C1.92381 13.4927 5.27686 16.846 9.39885 16.846C13.5202 16.846 16.873 13.4927 16.873 9.37097C16.873 5.25006 13.5202 1.89744 9.39885 1.89744Z" fill="#5F33E1"/>
<path d="M11.7791 9.91306H9.42392C9.12438 9.91306 8.88159 9.67027 8.88159 9.37072V3.33622C8.88159 3.03667 9.12438 2.79388 9.42392 2.79388C9.72347 2.79388 9.96626 3.03667 9.96626 3.33622V8.82861H11.7791C12.0788 8.82861 12.3216 9.07139 12.3216 9.37094C12.3216 9.67049 12.0788 9.91306 11.7791 9.91306Z" fill="#5F33E1"/>
<path d="M9.42438 15.9394C9.12462 15.9394 8.88184 15.6966 8.88184 15.3971V14.0588C8.88184 13.7593 9.12462 13.5165 9.42438 13.5165C9.72371 13.5165 9.9665 13.7593 9.9665 14.0588V15.3971C9.9665 15.6966 9.72371 15.9394 9.42438 15.9394Z" fill="#5F33E1"/>
<path d="M4.67536 9.91304H3.35654C3.057 9.91304 2.81421 9.67025 2.81421 9.3707C2.81421 9.07116 3.057 8.82837 3.35654 8.82837H4.67536C4.97491 8.82837 5.2177 9.07116 5.2177 9.3707C5.2177 9.67025 4.97491 9.91304 4.67536 9.91304Z" fill="#5F33E1"/>
<path d="M15.4407 9.91304H14.1215C13.8221 9.91304 13.5793 9.67025 13.5793 9.3707C13.5793 9.07116 13.8221 8.82837 14.1215 8.82837H15.4407C15.7405 8.82837 15.9833 9.07116 15.9833 9.3707C15.9833 9.67025 15.7405 9.91304 15.4407 9.91304Z" fill="#5F33E1"/>
<path d="M0.542333 4.02253C0.242787 4.02253 0 3.77974 0 3.4802V2.32733C0 1.04434 1.04453 0.000244141 2.32817 0.000244141H3.48038C3.77993 0.000244141 4.02272 0.243032 4.02272 0.542577C4.02272 0.842123 3.77993 1.08491 3.48038 1.08491H2.32817C1.64232 1.08491 1.08445 1.64235 1.08445 2.32755V3.48063C1.08467 3.77974 0.841879 4.02253 0.542333 4.02253Z" fill="#5F33E1"/>
<path d="M18.2536 4.0225C17.954 4.0225 17.7112 3.77971 17.7112 3.48017V2.32731C17.7112 1.64211 17.1536 1.08467 16.468 1.08467H15.3157C15.016 1.08467 14.7732 0.841879 14.7732 0.542333C14.7732 0.242787 15.016 0 15.3157 0H16.468C17.7514 0 18.7957 1.04409 18.7957 2.32709V3.48017C18.7959 3.77971 18.5531 4.0225 18.2536 4.0225Z" fill="#5F33E1"/>
</svg>
