<svg width="48" height="48" viewBox="0 0 48 48" fill="none" xmlns="http://www.w3.org/2000/svg">
<rect width="48" height="48" rx="9" fill="#F0F5FF"/>
<path d="M23.381 25.9048V27.4286H24.9048V25.9048H26.4286V24.381H24.9048V22.8571H23.381V24.381H21.8572V25.9048H23.381Z" fill="#BBC0CA"/>
<path fill-rule="evenodd" clip-rule="evenodd" d="M18.0476 16C17.206 16 16.5238 16.6822 16.5238 17.5238V18.2857C16.5238 18.3289 16.5256 18.3716 16.5291 18.4139C15.6386 18.7262 15 19.5742 15 20.5714V29.7143C15 30.9767 16.0234 32 17.2857 32H31C32.2624 32 33.2857 30.9767 33.2857 29.7143V20.5714C33.2857 19.3091 32.2624 18.2857 31 18.2857H24.0469C23.7085 16.9713 22.5153 16 21.0952 16H18.0476ZM22.4152 18.2857C22.1517 17.8302 21.6593 17.5238 21.0952 17.5238H18.0476V18.2857H22.4152ZM17.2857 19.8095C16.8649 19.8095 16.5238 20.1506 16.5238 20.5714V29.7143C16.5238 30.1351 16.8649 30.4762 17.2857 30.4762H31C31.4208 30.4762 31.7619 30.1351 31.7619 29.7143V20.5714C31.7619 20.1506 31.4208 19.8095 31 19.8095H17.2857Z" fill="#BBC0CA"/>
</svg>
