<svg width="20" height="20" viewBox="0 0 20 20" fill="none" xmlns="http://www.w3.org/2000/svg">
<circle opacity="0.1" cx="10" cy="10" r="10" fill="#FF0000"/>
<path d="M6.3184 13.6813C6.42829 13.7911 6.53818 13.8461 6.70301 13.8461C6.86785 13.8461 6.97774 13.7911 7.08763 13.6813L9.99972 10.7692L12.9118 13.6813C13.0217 13.7911 13.1865 13.8461 13.2964 13.8461C13.4063 13.8461 13.5711 13.7911 13.681 13.6813C13.9008 13.4615 13.9008 13.1318 13.681 12.912L10.7689 9.99993L13.681 7.08784C13.9008 6.86806 13.9008 6.53839 13.681 6.31861C13.4613 6.09883 13.1316 6.09883 12.9118 6.31861L9.99972 9.2307L7.08763 6.31861C6.86785 6.09883 6.53818 6.09883 6.3184 6.31861C6.09862 6.53839 6.09862 6.86806 6.3184 7.08784L9.23049 9.99993L6.3184 12.912C6.09862 13.1318 6.09862 13.4615 6.3184 13.6813Z" fill="#E50000"/>
</svg>
