<svg width="21" height="14" viewBox="0 0 21 14" fill="none" xmlns="http://www.w3.org/2000/svg">
<path d="M10.1905 1.79694C13.6812 1.79694 16.8815 3.79447 18.6097 7.02683C18.186 7.82234 17.6626 8.5574 17.0527 9.21321L18.3882 10.2846C19.1317 9.46824 19.7616 8.55025 20.26 7.55672C20.341 7.39237 20.3831 7.2108 20.3831 7.02665C20.3831 6.8425 20.341 6.66092 20.26 6.49658C18.3393 2.6537 14.5404 0.0536499 10.1905 0.0536499C8.89188 0.0536499 7.65305 0.30788 6.48818 0.736804L7.91583 1.84025C8.58603 1.68408 9.48705 1.79694 10.1905 1.79694ZM10.1905 12.2567C6.69978 12.2567 3.49991 10.2592 1.77135 7.02683C2.19554 6.23133 2.71958 5.49638 3.33006 4.84081L1.99463 3.76941C1.25125 4.58566 0.621439 5.50354 0.12312 6.49694C0.0421744 6.66129 0 6.84286 0 7.02701C0 7.21116 0.0421744 7.39274 0.12312 7.55708C2.04205 11.4 5.84098 14 10.1905 14C11.4891 14 12.728 13.744 13.8928 13.3169L12.2506 11.9992C11.5804 12.155 10.8943 12.2567 10.1905 12.2567Z" fill="#6E6A7C"/>
<path d="M10.1928 1.7433C6.70206 1.7433 3.50184 3.74082 1.77364 6.97318C2.19727 7.76869 2.72071 8.50375 3.33058 9.15956L1.99515 10.231C1.25164 9.41459 0.621719 8.4966 0.12328 7.50307C0.0423336 7.33873 0.00015831 7.15715 0.00015831 6.973C0.00015831 6.78885 0.0423336 6.60727 0.12328 6.44293C2.04398 2.60005 5.84291 0 10.1928 0C11.4914 0 12.7303 0.25423 13.8951 0.683154L12.2529 2.00116C11.5827 1.84499 10.8962 1.7433 10.1928 1.7433ZM10.1928 12.2031C13.6835 12.2031 16.8834 10.2055 18.6119 6.97318C18.1878 6.17768 17.6637 5.44273 17.0532 4.78716L18.3887 3.71576C19.1321 4.53201 19.7619 5.44989 20.2602 6.44329C20.3411 6.60764 20.3833 6.78921 20.3833 6.97336C20.3833 7.15751 20.3411 7.33909 20.2602 7.50343C18.3413 11.3463 14.5423 13.9464 10.1928 13.9464C8.89416 13.9464 7.65533 13.6903 6.49046 13.2632L7.8101 12.2031C8.48029 12.3589 9.48898 12.2031 10.1928 12.2031Z" fill="#6E6A7C"/>
<circle cx="10.17" cy="6.97319" r="3.96935" fill="#6E6A7C"/>
</svg>
