<svg width="22" height="18" viewBox="0 0 22 18" fill="none" xmlns="http://www.w3.org/2000/svg">
<path d="M21.7934 16.5586L1.2378 0.123399C1.18142 0.0772308 1.1167 0.0428727 1.04733 0.0222861C0.977971 0.00169945 0.905323 -0.00471253 0.833537 0.00341622C0.76175 0.011545 0.692232 0.0340553 0.628952 0.0696619C0.565672 0.105268 0.509869 0.153274 0.464728 0.210938L0.120988 0.650039C0.075742 0.707723 0.0420609 0.773965 0.0218725 0.844976C0.00168403 0.915987 -0.00461552 0.990372 0.00333432 1.06388C0.0112842 1.13738 0.0333273 1.20856 0.0682025 1.27334C0.103078 1.33812 0.1501 1.39523 0.20658 1.44141L20.7622 17.8766C20.8186 17.9228 20.8833 17.9571 20.9527 17.9777C21.022 17.9983 21.0947 18.0047 21.1665 17.9966C21.2382 17.9885 21.3078 17.9659 21.371 17.9303C21.4343 17.8947 21.4901 17.8467 21.5353 17.7891L21.879 17.35C21.9243 17.2923 21.9579 17.226 21.9781 17.155C21.9983 17.084 22.0046 17.0096 21.9967 16.9361C21.9887 16.8626 21.9667 16.7914 21.9318 16.7267C21.8969 16.6619 21.8499 16.6048 21.7934 16.5586ZM10.2022 5.14934L14.8354 8.8541C14.7591 6.74684 13.0789 5.0625 11 5.0625C10.7318 5.06301 10.4644 5.09212 10.2022 5.14934ZM11.7978 12.851L7.16455 9.14625C7.24121 11.2532 8.92141 12.9375 11 12.9375C11.2681 12.9369 11.5355 12.9079 11.7978 12.851ZM11 3.9375C14.391 3.9375 17.4998 5.87109 19.1786 9C18.7671 9.77005 18.2586 10.4816 17.6661 11.1164L18.9634 12.1535C19.6857 11.3633 20.2976 10.4747 20.7818 9.51293C20.8604 9.35384 20.9014 9.17808 20.9014 8.99982C20.9014 8.82157 20.8604 8.6458 20.7818 8.48672C18.916 4.76684 15.2256 2.25 11 2.25C9.73848 2.25 8.53504 2.49609 7.40345 2.91129L8.99875 4.18711C9.64979 4.03594 10.3166 3.9375 11 3.9375ZM11 14.0625C7.60901 14.0625 4.50057 12.1289 2.82141 9C3.23347 8.22996 3.74254 7.51853 4.33558 6.88395L3.03831 5.84684C2.31616 6.63697 1.70435 7.52546 1.22027 8.48707C1.14163 8.64616 1.10066 8.82192 1.10066 9.00018C1.10066 9.17843 1.14163 9.3542 1.22027 9.51328C3.08437 13.2332 6.77475 15.75 11 15.75C12.2615 15.75 13.465 15.5021 14.5965 15.0887L13.0013 13.8132C12.3502 13.9641 11.6837 14.0625 11 14.0625Z" fill="#6E6A7C"/>
</svg>
