<svg width="48" height="48" viewBox="0 0 48 48" fill="none" xmlns="http://www.w3.org/2000/svg">
<rect width="48" height="48" rx="9" fill="#F1EFF8"/>
<path d="M27.75 30.9875L26.1312 29.3687L25.25 30.25L27.75 32.75L32.75 27.75L31.8688 26.8687L27.75 30.9875Z" fill="#3B3081"/>
<path d="M29.625 17.125H27.75V16.5C27.749 16.1688 27.617 15.8514 27.3828 15.6172C27.1486 15.383 26.8312 15.251 26.5 15.25H21.5C21.1688 15.251 20.8514 15.383 20.6172 15.6172C20.383 15.8514 20.251 16.1688 20.25 16.5V17.125H18.375C18.0438 17.126 17.7264 17.258 17.4922 17.4922C17.258 17.7264 17.126 18.0438 17.125 18.375V31.5C17.126 31.8312 17.258 32.1486 17.4922 32.3828C17.7264 32.617 18.0438 32.749 18.375 32.75H24V31.5H18.375V18.375H20.25V20.25H27.75V18.375H29.625V25.25H30.875V18.375C30.874 18.0438 30.742 17.7264 30.5078 17.4922C30.2736 17.258 29.9562 17.126 29.625 17.125ZM26.5 19H21.5V16.5H26.5V19Z" fill="#3B3081"/>
</svg>
