<svg width="18" height="21" viewBox="0 0 18 21" fill="none" xmlns="http://www.w3.org/2000/svg">
<path d="M8.25049 21C8.83255 20.9994 9.40653 20.8636 9.92714 20.6033C10.4478 20.343 10.9008 19.9653 11.2505 19.5H5.25049C5.60019 19.9653 6.05322 20.343 6.57383 20.6033C7.09445 20.8636 7.66842 20.9994 8.25049 21Z" fill="#24252C"/>
<path d="M15.8179 14.0025C15.5586 13.7452 15.3528 13.4391 15.2125 13.1018C15.0721 12.7646 15.0001 12.4028 15.0004 12.0375V9.75C15.0004 7.95979 14.2893 6.2429 13.0234 4.97703C11.7575 3.71116 10.0407 3 8.25045 3C6.46024 3 4.74335 3.71116 3.47748 4.97703C2.21161 6.2429 1.50045 7.95979 1.50045 9.75V12.0375C1.50081 12.4028 1.42875 12.7646 1.28843 13.1018C1.14811 13.4391 0.942315 13.7452 0.682948 14.0025C0.356365 14.3305 0.134201 14.7478 0.044469 15.2019C-0.0452631 15.6559 0.00145419 16.1264 0.17873 16.5539C0.356007 16.9815 0.655904 17.347 1.04061 17.6043C1.42532 17.8617 1.8776 17.9993 2.34045 18H14.1604C14.6233 17.9993 15.0756 17.8617 15.4603 17.6043C15.845 17.347 16.1449 16.9815 16.3222 16.5539C16.4994 16.1264 16.5462 15.6559 16.4564 15.2019C16.3667 14.7478 16.1445 14.3305 15.8179 14.0025Z" fill="#24252C"/>
<circle cx="13.5" cy="4.5" r="4.5" fill="#5F33E1"/>
</svg>
