<svg width="19" height="15" viewBox="0 0 19 15" fill="none" xmlns="http://www.w3.org/2000/svg">
<path d="M11.4 9.375H7.6C7.07542 9.375 6.65 9.79482 6.65 10.3125V14.0625C6.65 14.5802 7.07542 15 7.6 15H11.4C11.9246 15 12.35 14.5802 12.35 14.0625V10.3125C12.35 9.79482 11.9246 9.375 11.4 9.375ZM5.7 0.9375C5.7 0.419824 5.27458 0 4.75 0H0.95C0.425422 0 0 0.419824 0 0.9375V4.6875C0 5.20518 0.425422 5.625 0.95 5.625H3.79169L5.96362 9.37617C6.29316 8.81777 6.89937 8.4375 7.6 8.4375H7.60831L5.7 5.14189V3.75H12.35V1.875H5.7V0.9375ZM18.05 0H14.25C13.7254 0 13.3 0.419824 13.3 0.9375V4.6875C13.3 5.20518 13.7254 5.625 14.25 5.625H18.05C18.5746 5.625 19 5.20518 19 4.6875V0.9375C19 0.419824 18.5746 0 18.05 0Z" fill="#484848"/>
</svg>
