<svg width="23" height="23" viewBox="0 0 23 23" fill="none" xmlns="http://www.w3.org/2000/svg">
<path d="M22.3234 19.0369L17.1767 13.8938L16.4171 14.6526L15.2879 13.5234C19.5054 7.80574 15.3066 0 8.4779 0C3.79254 0 0 3.79162 0 8.47773C0 13.2598 3.91652 16.9725 8.47369 16.9721C10.217 16.972 11.9701 16.4288 13.479 15.3231C13.4941 15.3121 13.5084 15.2991 13.5234 15.288L14.6516 16.4162L13.8919 17.1752L19.0385 22.3218C19.9429 23.2263 21.4256 23.2197 22.3234 22.3218C23.2255 21.4161 23.2255 19.9426 22.3234 19.0369ZM0.718805 8.47773C0.718805 4.1895 4.18908 0.718805 8.4779 0.718805C15.568 0.718805 19.0978 9.64271 13.4929 14.3967V12.0896C13.4929 10.6125 12.2961 9.41568 10.8153 9.41568H9.94921L8.49721 12.1867C8.49001 12.2046 8.46123 12.2046 8.45763 12.1867L7.00568 9.41568H6.13591C4.65877 9.41568 3.46197 10.6125 3.46197 12.0896V14.3946C1.67266 12.8701 0.718805 10.7308 0.718805 8.47773Z" fill="#484848"/>
<path d="M8.47784 8.44847C9.91212 8.44847 11.0749 6.27472 11.0749 4.84042C11.0749 3.40615 9.91212 2.24344 8.47784 2.24344C7.04357 2.24344 5.88086 3.40615 5.88086 4.84042C5.88086 6.27472 7.04357 8.44847 8.47784 8.44847Z" fill="#484848"/>
</svg>
